<svg xmlns="http://www.w3.org/2000/svg" viewBox="0 0 384 512" width="24" height="24" fill="currentColor">
  <path d="M0 64C0 28.7 28.7 0 64 0H320c35.3 0 64 28.7 64 64V448c0 35.3-28.7 64-64 64H64c-35.3 0-64-28.7-64-64V64zM64 240c0 8.8 7.2 16 16 16h32c8.8 0 16-7.2 16-16s-7.2-16-16-16H80c-8.8 0-16 7.2-16 16zm80 16h32c8.8 0 16-7.2 16-16s-7.2-16-16-16H144c-8.8 0-16 7.2-16 16s7.2 16 16 16zm96-16c0 8.8 7.2 16 16 16h32c8.8 0 16-7.2 16-16s-7.2-16-16-16H256c-8.8 0-16 7.2-16 16zM80 96c-8.8 0-16 7.2-16 16s7.2 16 16 16h32c8.8 0 16-7.2 16-16s-7.2-16-16-16H80zm64 16c0-8.8-7.2-16-16-16s-16 7.2-16 16s7.2 16 16 16s16-7.2 16-16zm72-16c-8.8 0-16 7.2-16 16s7.2 16 16 16h32c8.8 0 16-7.2 16-16s-7.2-16-16-16H216zm64 16c0-8.8-7.2-16-16-16s-16 7.2-16 16s7.2 16 16 16s16-7.2 16-16zM64 176c0 8.8 7.2 16 16 16H320c8.8 0 16-7.2 16-16s-7.2-16-16-16H80c-8.8 0-16 7.2-16 16zm16 96c-8.8 0-16 7.2-16 16s7.2 16 16 16H320c8.8 0 16-7.2 16-16s-7.2-16-16-16H80zm0 128c-8.8 0-16 7.2-16 16s7.2 16 16 16h32c8.8 0 16-7.2 16-16s-7.2-16-16-16H80zm80 16c0-8.8-7.2-16-16-16s-16 7.2-16 16s7.2 16 16 16s16-7.2 16-16zm72-16c-8.8 0-16 7.2-16 16s7.2 16 16 16h32c8.8 0 16-7.2 16-16s-7.2-16-16-16H232zm64 16c0-8.8-7.2-16-16-16s-16 7.2-16 16s7.2 16 16 16s16-7.2 16-16z"/>
</svg> 