<?xml version="1.0" encoding="UTF-8"?>
<svg width="16" height="16" viewBox="0 0 16 16" fill="none" xmlns="http://www.w3.org/2000/svg">
  <path d="M6.5 1H3C1.89543 1 1 1.89543 1 3V6.5C1 6.5 1 8 2.5 8C4 8 4 6.5 4 6.5V4.5H6.5C6.5 4.5 8 4.5 8 3C8 1.5 6.5 1 6.5 1Z" stroke="currentColor" stroke-width="1.5" stroke-linecap="round" stroke-linejoin="round"/>
  <path d="M9.5 15H13C14.1046 15 15 14.1046 15 13V9.5C15 9.5 15 8 13.5 8C12 8 12 9.5 12 9.5V11.5H9.5C9.5 11.5 8 11.5 8 13C8 14.5 9.5 15 9.5 15Z" stroke="currentColor" stroke-width="1.5" stroke-linecap="round" stroke-linejoin="round"/>
  <path d="M13 3V6.5C13 6.5 13 8 11.5 8C10 8 10 6.5 10 6.5V4.5H9.5C9.5 4.5 8 4.5 8 3C8 1.5 9.5 1 9.5 1H13C14.1046 1 15 1.89543 15 3V6.5" stroke="currentColor" stroke-width="1.5" stroke-linecap="round" stroke-linejoin="round"/>
  <path d="M3 13V9.5C3 9.5 3 8 4.5 8C6 8 6 9.5 6 9.5V11.5H6.5C6.5 11.5 8 11.5 8 13C8 14.5 6.5 15 6.5 15H3C1.89543 15 1 14.1046 1 13V9.5" stroke="currentColor" stroke-width="1.5" stroke-linecap="round" stroke-linejoin="round"/>
</svg> 